<svg width="110" height="24" viewBox="0 0 110 24" fill="none" xmlns="http://www.w3.org/2000/svg">
<path d="M0.784 19L8.272 2.2H12.112L19.624 19H15.544L9.4 4.168H10.936L4.768 19H0.784ZM4.528 15.4L5.56 12.448H14.2L15.256 15.4H4.528ZM26.2658 19.192C24.7458 19.192 23.5618 18.808 22.7138 18.04C21.8658 17.256 21.4418 16.096 21.4418 14.56V3.232H25.1858V14.512C25.1858 15.056 25.3298 15.48 25.6178 15.784C25.9058 16.072 26.2978 16.216 26.7938 16.216C27.3858 16.216 27.8898 16.056 28.3058 15.736L29.3138 18.376C28.9298 18.648 28.4658 18.856 27.9218 19C27.3938 19.128 26.8418 19.192 26.2658 19.192ZM19.4498 9.256V6.376H28.4018V9.256H19.4498ZM36.4143 19.192C34.8943 19.192 33.7103 18.808 32.8623 18.04C32.0143 17.256 31.5903 16.096 31.5903 14.56V3.232H35.3343V14.512C35.3343 15.056 35.4783 15.48 35.7663 15.784C36.0543 16.072 36.4463 16.216 36.9423 16.216C37.5343 16.216 38.0383 16.056 38.4543 15.736L39.4623 18.376C39.0783 18.648 38.6143 18.856 38.0703 19C37.5423 19.128 36.9903 19.192 36.4143 19.192ZM29.5983 9.256V6.376H38.5503V9.256H29.5983ZM47.5735 19.192C46.1015 19.192 44.8055 18.904 43.6855 18.328C42.5815 17.752 41.7255 16.968 41.1175 15.976C40.5095 14.968 40.2055 13.824 40.2055 12.544C40.2055 11.248 40.5015 10.104 41.0935 9.112C41.7015 8.104 42.5255 7.32 43.5655 6.76C44.6055 6.184 45.7815 5.896 47.0935 5.896C48.3575 5.896 49.4935 6.168 50.5015 6.712C51.5255 7.24 52.3335 8.008 52.9255 9.016C53.5175 10.008 53.8135 11.2 53.8135 12.592C53.8135 12.736 53.8055 12.904 53.7895 13.096C53.7735 13.272 53.7575 13.44 53.7415 13.6H43.2535V11.416H51.7735L50.3335 12.064C50.3335 11.392 50.1975 10.808 49.9255 10.312C49.6535 9.816 49.2775 9.432 48.7975 9.16C48.3175 8.872 47.7575 8.728 47.1175 8.728C46.4775 8.728 45.9095 8.872 45.4135 9.16C44.9335 9.432 44.5575 9.824 44.2855 10.336C44.0135 10.832 43.8775 11.424 43.8775 12.112V12.688C43.8775 13.392 44.0295 14.016 44.3335 14.56C44.6535 15.088 45.0935 15.496 45.6535 15.784C46.2295 16.056 46.9015 16.192 47.6695 16.192C48.3575 16.192 48.9575 16.088 49.4695 15.88C49.9975 15.672 50.4775 15.36 50.9095 14.944L52.9015 17.104C52.3095 17.776 51.5655 18.296 50.6695 18.664C49.7735 19.016 48.7415 19.192 47.5735 19.192ZM60.6501 19.192C59.5461 19.192 58.4821 19.064 57.4581 18.808C56.4501 18.536 55.6501 18.2 55.0581 17.8L56.3061 15.112C56.8981 15.48 57.5941 15.784 58.3941 16.024C59.2101 16.248 60.0101 16.36 60.7941 16.36C61.6581 16.36 62.2661 16.256 62.6181 16.048C62.9861 15.84 63.1701 15.552 63.1701 15.184C63.1701 14.88 63.0261 14.656 62.7381 14.512C62.4661 14.352 62.0981 14.232 61.6341 14.152C61.1701 14.072 60.6581 13.992 60.0981 13.912C59.5541 13.832 59.0021 13.728 58.4421 13.6C57.8821 13.456 57.3701 13.248 56.9061 12.976C56.4421 12.704 56.0661 12.336 55.7781 11.872C55.5061 11.408 55.3701 10.808 55.3701 10.072C55.3701 9.256 55.6021 8.536 56.0661 7.912C56.5461 7.288 57.2341 6.8 58.1301 6.448C59.0261 6.08 60.0981 5.896 61.3461 5.896C62.2261 5.896 63.1221 5.992 64.0341 6.184C64.9461 6.376 65.7061 6.656 66.3141 7.024L65.0661 9.688C64.4421 9.32 63.8101 9.072 63.1701 8.944C62.5461 8.8 61.9381 8.728 61.3461 8.728C60.5141 8.728 59.9061 8.84 59.5221 9.064C59.1381 9.288 58.9461 9.576 58.9461 9.928C58.9461 10.248 59.0821 10.488 59.3541 10.648C59.6421 10.808 60.0181 10.936 60.4821 11.032C60.9461 11.128 61.4501 11.216 61.9941 11.296C62.5541 11.36 63.1141 11.464 63.6741 11.608C64.2341 11.752 64.7381 11.96 65.1861 12.232C65.6501 12.488 66.0261 12.848 66.3141 13.312C66.6021 13.76 66.7461 14.352 66.7461 15.088C66.7461 15.888 66.5061 16.6 66.0261 17.224C65.5461 17.832 64.8501 18.312 63.9381 18.664C63.0421 19.016 61.9461 19.192 60.6501 19.192ZM74.3361 19.192C72.8161 19.192 71.6321 18.808 70.7841 18.04C69.9361 17.256 69.5121 16.096 69.5121 14.56V3.232H73.2561V14.512C73.2561 15.056 73.4001 15.48 73.6881 15.784C73.9761 16.072 74.3681 16.216 74.8641 16.216C75.4561 16.216 75.9601 16.056 76.3761 15.736L77.3841 18.376C77.0001 18.648 76.5361 18.856 75.9921 19C75.4641 19.128 74.9121 19.192 74.3361 19.192ZM67.5201 9.256V6.376H76.4721V9.256H67.5201ZM79.4858 19V6.088H83.2298V19H79.4858ZM81.3578 4.288C80.6698 4.288 80.1098 4.088 79.6778 3.688C79.2458 3.288 79.0298 2.792 79.0298 2.2C79.0298 1.608 79.2458 1.112 79.6778 0.711999C80.1098 0.311999 80.6698 0.111999 81.3578 0.111999C82.0458 0.111999 82.6058 0.303999 83.0378 0.688C83.4698 1.056 83.6858 1.536 83.6858 2.128C83.6858 2.752 83.4698 3.272 83.0378 3.688C82.6218 4.088 82.0618 4.288 81.3578 4.288ZM87.1606 19V5.8C87.1606 4.344 87.5926 3.184 88.4566 2.32C89.3206 1.44 90.5526 0.999999 92.1526 0.999999C92.6966 0.999999 93.2166 1.056 93.7126 1.168C94.2246 1.28 94.6566 1.456 95.0086 1.696L94.0246 4.408C93.8166 4.264 93.5846 4.152 93.3286 4.072C93.0726 3.992 92.8006 3.952 92.5126 3.952C91.9686 3.952 91.5446 4.112 91.2406 4.432C90.9526 4.736 90.8086 5.2 90.8086 5.824V7.024L90.9046 8.632V19H87.1606ZM85.1686 9.256V6.376H94.1206V9.256H85.1686ZM97.8522 23.848C97.1802 23.848 96.5162 23.744 95.8602 23.536C95.2042 23.328 94.6682 23.04 94.2522 22.672L95.6202 20.008C95.9082 20.264 96.2362 20.464 96.6042 20.608C96.9882 20.752 97.3642 20.824 97.7322 20.824C98.2602 20.824 98.6762 20.696 98.9802 20.44C99.3002 20.2 99.5882 19.792 99.8442 19.216L100.516 17.632L100.804 17.224L105.436 6.088H109.036L103.204 19.792C102.788 20.832 102.308 21.648 101.764 22.24C101.236 22.832 100.644 23.248 99.9882 23.488C99.3482 23.728 98.6362 23.848 97.8522 23.848ZM100.06 19.504L94.3002 6.088H98.1642L102.628 16.888L100.06 19.504Z" fill="#0084C4"/>
</svg>
